<svg xmlns="http://www.w3.org/2000/svg" viewBox="0 0 119.74 73.22"><path d="M47.18.39h26a5.16,5.16,0,0,1,5.11,5.15V20.38a5.16,5.16,0,0,1-5.15,5.15h-26A5.15,5.15,0,0,1,42,20.38V5.54A5.15,5.15,0,0,1,47.18.39ZM73.18,28H61.48V60.42h45.23V35.55a7.84,7.84,0,0,1,7.83-7.83V22.66a9.7,9.7,0,0,0-9.7-9.7h-24v7.42A7.66,7.66,0,0,1,73.18,28ZM41.75,25.76A7.65,7.65,0,0,0,47.15,28H58.56V60.49H13.26V35.59a7.84,7.84,0,0,0-7.78-7.83V22.7A9.69,9.69,0,0,1,15.17,13H39.51v7.35A7.65,7.65,0,0,0,41.75,25.76ZM5.43,30.23h.05a5.33,5.33,0,0,1,5.28,5.32V63H58.6V73.61H5.43a5.21,5.21,0,0,1-2.07-.42A5.32,5.32,0,0,1,.11,68.28V35.56a5.33,5.33,0,0,1,5.32-5.33Zm107.13.41a5.29,5.29,0,0,1,7.29,4.91V68.28a5.33,5.33,0,0,1-5.32,5.33H61.44V63h47.83V35.56a5.33,5.33,0,0,1,3.29-4.92Z"/></svg>