<svg xmlns="http://www.w3.org/2000/svg" viewBox="0 0 119.78 60.64"><path d="M13.76,48.17h45.3V10.38a9.7,9.7,0,0,0-9.7-9.7H15.67A9.69,9.69,0,0,0,6,10.38v5.06a7.83,7.83,0,0,1,7.76,7.82Zm93.47,0H62V10.38A9.69,9.69,0,0,1,71.67.68h33.69a9.7,9.7,0,0,1,9.7,9.7v5.06a7.83,7.83,0,0,0-7.83,7.82ZM59.1,50.67H11.26V23.26A5.34,5.34,0,0,0,6,17.94H5.93A5.32,5.32,0,0,0,.61,23.26V56a5.3,5.3,0,0,0,3.25,4.9,5.21,5.21,0,0,0,2.07.42H59.1Zm56,10.65H62V50.67h47.77V23.26a5.31,5.31,0,0,1,10.62,0V56a5.32,5.32,0,0,1-5.3,5.32Z"/></svg>