<svg xmlns="http://www.w3.org/2000/svg" viewBox="0 0 68.93 81.61"><path d="M23.42,23.27V16.34A7.65,7.65,0,0,0,15.8,8.69h-4V6.46A5.85,5.85,0,0,1,17.64.6h39a5.85,5.85,0,0,1,5.84,5.84v11a5.83,5.83,0,0,1-3.64,5.4h0a5.75,5.75,0,0,1-2.2.43ZM16.09,38.6a7.83,7.83,0,0,0-5.54-2.3V34.41h5.23a7.65,7.65,0,0,0,7.64-7.64v-1H56.63A8.37,8.37,0,0,0,61,24.53a9.67,9.67,0,0,1,2.67,6.73v5.07a7.83,7.83,0,0,0-7.82,7.82V69.06H18.38V44.15a7.83,7.83,0,0,0-2.29-5.55ZM5.22,76.88a5.33,5.33,0,0,0,5.33,5.33H63.67A5.33,5.33,0,0,0,69,76.88V44.15a5.33,5.33,0,0,0-5.3-5.32h0a5.33,5.33,0,0,0-5.29,5.32V71.56H15.88V44.15a5.33,5.33,0,0,0-10.66,0ZM.07,16a5,5,0,0,1,5-5h11a5,5,0,0,1,5,5V27a5,5,0,0,1-5,5h-11a5,5,0,0,1-5-5Z"/></svg>