<svg xmlns="http://www.w3.org/2000/svg" viewBox="0 0 119.78 60.64"><path d="M56.12,2.84A9.7,9.7,0,0,1,59,9.7V47.49H13.66V22.58A7.83,7.83,0,0,0,5.9,14.76V9.7A9.69,9.69,0,0,1,15.57,0H49.26A9.7,9.7,0,0,1,56.12,2.84ZM61.9,9.7A9.69,9.69,0,0,1,71.57,0h33.69A9.7,9.7,0,0,1,115,9.7v5.06a7.83,7.83,0,0,0-7.83,7.82V47.49H61.9ZM9.62,18.84a5.34,5.34,0,0,1,1.54,3.74V50h98.51V22.58a5.31,5.31,0,0,1,10.62,0V55.32a5.32,5.32,0,0,1-5.3,5.32H5.83a5.21,5.21,0,0,1-2.07-.42,5.3,5.3,0,0,1-3.25-4.9V22.58a5.32,5.32,0,0,1,5.32-5.32H5.9A5.34,5.34,0,0,1,9.62,18.84Z"/></svg>